<?xml version="1.0" encoding="utf-8"?>
<svg viewBox="59.585 102.763 360.968 313.472" xmlns="http://www.w3.org/2000/svg">
  <path opacity="1.000000" stroke="none" d="M 131.339 321.269 C 131.044 321.416 115.536 341.082 117.943 343.652 C 118.08 343.942 118.248 344.319 118.42 344.431 C 121.31 351.92 121.859 359.65 118.499 366.613 C 115.41 373.013 113.238 379.775 109.73 386.408 C 109.228 386.994 108.948 387.227 108.529 387.696 C 106.12 388.69 105.552 387.245 105.145 385.094 C 105.087 383.329 104.451 376.556 104.224 374.938 C 103.609 370.548 102.633 370.089 98.212 372.253 C 97.871 372.331 93.562 375.485 93.446 375.632 C 92.702 376.251 79.587 384.496 79.458 384.638 C 76.532 386.432 73.474 389.378 70.408 386.681 C 67.613 384.221 70.598 378.155 70.932 377.882 C 70.982 377.236 82.375 363.336 83.407 362.287 C 84.73 359.906 83.428 359.03 81.423 358.24 C 80.723 358.006 80.311 357.894 79.578 357.813 C 74.271 357.437 69.275 357.789 64.286 357.638 C 62.964 357.598 61.456 357.706 60.972 356.075 C 60.446 354.302 61.653 353.275 62.969 352.468 C 68.315 349.188 74.323 347.788 80.386 346.778 C 82.674 346.397 84.943 345.888 87.224 345.482 C 91.654 344.693 94.389 342.334 95.607 337.536 C 98.123 327.631 103.086 318.755 108.964 309.952 C 109.563 309.238 109.911 308.839 110.373 308.199 C 112.781 304.907 115.67 302.349 118.001 298.889 C 119.456 297.486 120.69 296.338 122.101 294.927 C 122.837 294.115 123.406 293.577 124.288 292.979 C 124.564 292.88 124.944 292.786 125.076 292.642 C 128.458 290.769 131.806 291.55 134.801 292.796 C 149.114 298.748 178.516 312.449 179.445 312.913 C 180.995 314.031 193.072 316.337 192.486 315.87 C 189.846 315.65 182.941 312.121 181.452 311.884 C 175.528 308.115 140.884 286.97 139.934 286.457 C 132.857 282.69 125.976 280.536 118.376 285.316 C 117.754 285.601 115.196 288.719 114.144 289.773 C 109.292 294.634 108.24 294.494 104.759 288.494 C 104.095 287.348 103.548 286.134 102.679 284.681 C 102.526 284.347 102.443 283.972 102.297 283.848 C 93.993 268.11 87.933 251.738 84.292 234.484 C 83.465 230.567 79.714 208.996 81.769 189.092 C 83.865 168.786 91.817 150.108 95.847 142.693 C 96.612 141.285 100.699 135.115 105.889 129.711 C 110.961 124.429 117.137 119.904 118.092 119.17 C 118.377 118.972 118.628 118.623 118.837 118.569 C 134.853 108.649 152.287 105.513 170.545 106.79 C 180.292 107.471 189.893 109.508 199.079 114.331 C 199.245 114.447 206.889 118.061 212.376 123.475 C 218.386 129.404 222.28 137.179 222.311 137.297 C 227.867 147.37 230.876 157.82 231.382 169.196 C 231.992 182.914 229.055 195.519 221.648 207.532 C 221.422 207.887 221.352 208.305 221.194 208.446 C 220.638 209.246 220.133 209.828 219.596 210.727 C 219.502 210.999 219.394 211.382 219.224 211.484 C 214.183 217.467 208.279 222.108 201.479 226.208 C 201.194 226.399 200.914 226.725 200.703 226.764 C 192.188 231.522 177.013 234.139 164.506 231.585 C 152.014 229.034 142.187 221.316 141.538 220.717 C 137.51 216.565 134.786 212.043 133.808 206.314 C 134.973 205.914 137.025 209.249 141.228 212.006 C 150.931 218.372 167.766 227.443 180.654 221.722 C 181.907 221.338 201.882 213.343 208.893 198.227 C 215.137 184.763 208.846 164.491 204.788 156.899 C 204.584 156.571 199.876 145.562 187.53 140.52 C 174.215 133.914 160.899 134.217 147.518 139.559 C 146.307 140.042 133.721 146.962 125.075 160.075 C 117.235 171.967 113.222 189.832 112.94 196.21 C 112.891 196.643 106.704 229.233 116.437 250.847 C 124.728 269.259 149.112 277.173 149.662 277.802 C 150.505 278.767 154.327 277.957 158.794 276.558 C 160.008 276.178 155.67 272.922 156.932 272.479 C 158.044 272.089 164.756 274.515 165.837 274.11 C 166.905 273.71 163.212 269.163 164.188 268.781 C 165.807 268.147 171.986 271.708 173.124 271.238 C 174.486 270.676 170.006 266.636 170.235 266.535 C 170.438 266.481 177.492 269.318 179.141 268.5 C 180.886 267.634 175.886 265.281 175.886 265.281 C 176.772 264.83 184.439 265.832 185.39 265.343 C 186.31 264.87 182.844 262.199 183.782 261.714 C 185.065 261.05 190.751 262.573 191.971 261.938 C 193.072 261.365 188.078 259.009 189.042 258.504 C 190.384 257.799 195.152 259.923 197.006 260.196 C 199.144 260.511 193.918 256.543 194.017 256.47 C 194.417 256.175 201.957 256.68 203.978 256.017 C 204.796 255.749 198.073 253.647 199.131 253.298 C 200.546 252.831 208.274 253.472 210.243 253.053 C 211.246 252.84 204.397 251.179 205.457 250.909 C 206.382 250.674 215.209 251.836 216.17 251.56 C 217.22 251.259 211.088 247.405 212.171 247.062 C 212.988 246.803 221.014 250.063 221.845 249.782 C 222.961 249.404 216.51 245.549 217.644 245.134 C 219.101 244.602 228.147 247.499 229.615 246.915 C 230.99 246.368 222.245 244.755 223.613 244.17 C 224.492 243.794 235.489 244.456 236.358 244.067 C 237.234 243.675 228.747 242.044 229.608 241.642 C 230.588 241.184 240.915 241.954 241.871 241.485 C 242.628 241.114 236.961 239.276 237.699 238.899 C 239.05 238.21 246.78 238.977 248.051 238.277 C 249.128 237.684 244.72 236.329 245.705 235.675 C 247.016 234.805 253.685 234.615 254.84 233.668 C 255.866 232.826 248.362 232.665 249.268 231.789 C 249.909 231.169 258.988 229.84 259.571 229.214 C 260.518 228.197 254.224 228.623 255.023 227.619 C 255.6 226.894 263.305 224.73 263.807 224.029 C 267.72 218.569 269.408 214.057 269.427 213.87 C 269.534 212.839 268.703 212.527 267.932 212.198 C 266.672 211.658 265.342 211.703 264.014 211.646 C 262.568 211.584 260.737 212.012 260.114 210.228 C 259.32 207.951 262.016 208.018 263.023 206.727 C 260.36 205.159 261.141 205.952 258.296 204.638 C 257.792 204.201 252.856 204.487 252.462 204.089 C 251.962 203.535 254.575 201.33 254.833 201.081 C 256.161 199.803 255.915 198.976 254.644 197.955 C 253.338 196.907 248.937 196.998 248.685 195.72 C 251.293 192.801 252.834 192.152 254.19 192.342 C 254.243 192.35 249.769 188.998 250.827 188.196 C 251.699 187.536 258.118 189.533 258.317 188.495 C 258.722 186.375 255.93 183.544 257.084 182.724 C 259.082 181.304 261.971 188.189 263.142 186.487 C 265.192 183.509 263.433 178.812 266.563 178.469 C 268.15 178.295 269.648 185.746 271.553 185.544 C 273.931 185.291 276.728 177.514 278.638 178.939 C 282.529 181.845 284.606 189.086 285.054 188.97 C 287.804 188.257 289.533 189.526 290.322 192.182 C 290.417 192.502 290.498 192.826 290.554 193.154 C 293.051 207.716 301.275 217.565 315.281 223.148 C 315.827 223.847 315.991 224.319 316.027 225.202 C 315.235 228.035 313.036 228.476 310.984 228.999 C 309.047 229.493 307.197 230.084 305.426 231.621 C 305.064 232.132 305.003 232.187 305.492 231.778 C 308.472 229.314 339.397 228.14 348.373 226.519 C 365.535 223.419 382.094 218.152 399.073 212.78 C 403.935 212.539 409.196 210.092 413.207 214.418 C 413.394 216.118 412.596 223.487 411.68 225.446 C 409.404 228.638 408.922 232.771 405.901 235.255 C 405.266 235.777 405.131 243.317 404.232 243.669 C 402.664 244.639 402.477 239.108 401.641 240.489 C 400.896 241.749 400.424 250.568 398.798 250.563 C 397.75 250.162 396.39 244.883 396.237 246.436 C 395.985 249.005 391.599 255.593 391.149 256.863 C 390.504 256.59 391.569 250.532 391.159 251.054 C 390.699 252.9 388.826 255.206 388.835 255.309 C 387.108 256.532 386.485 262.773 384.743 265.032 C 384.459 266.03 383.413 258.248 383.268 259.307 C 382.575 261.513 380.573 266.954 379.039 266.357 C 377.632 265.809 377.472 261.01 376.816 262.546 C 376.008 264.441 373.418 272.866 372.418 273.122 C 370.005 272.323 370.318 267.083 369.663 268.691 C 369.133 269.204 367.163 278.359 366.473 278.631 C 364.547 279.017 364.456 272.038 363.458 273.465 C 361.902 274.597 361.683 280.064 360.105 281.019 C 359.268 282.184 358.639 276.553 357.956 277.821 C 357.243 278.593 356.096 282.499 355.088 282.775 C 353.381 282.724 352.689 279.21 352.298 280.914 C 352.041 282.037 350.933 285.043 350.08 285.345 C 349.517 285.544 346.328 283.097 345.882 283.341 C 342.131 283.639 339.687 285.967 336.752 287.88 C 336.357 288.527 336.107 288.882 335.67 289.502 C 333.691 293.624 335.184 297.327 337.399 299.967 C 348.294 312.952 355.586 328.195 364.577 342.364 C 367.182 346.469 369.941 350.117 373.952 353.153 C 380.112 357.817 382.223 365.19 383.207 372.429 C 384.147 379.345 381.605 385.898 378.45 392.064 C 377.387 394.142 375.703 395.616 373.26 395.159 C 370.552 394.653 370.432 392.31 370.254 390.08 C 369.917 385.873 371.051 381.806 371.325 377.659 C 372.014 367.259 363.567 361.056 353.709 364.798 C 350.9 365.865 348.397 367.49 345.999 369.352 C 342.896 371.762 340.745 370.95 339.999 367.121 C 339.657 365.371 339.699 363.442 340.041 361.687 C 340.547 359.086 341.215 356.452 342.277 354.036 C 344.875 348.127 345.659 342.776 339.755 338.15 C 338.135 336.88 336.942 334.776 336.13 332.816 C 332.456 323.955 324.971 318.496 318.277 312.31 C 316.805 310.95 315.499 310.701 313.379 311.34 C 307.705 313.05 302.09 315.12 295.951 314.967 C 292.6 314.883 264.787 328.692 262.205 328.577 C 247.477 326.283 253.609 322.538 256.222 320.793 C 264.921 314.981 276.21 312.517 282.233 304 C 282.269 301.913 281.027 302.482 280.252 302.772 C 277.943 303.635 249.887 321.449 249.075 322.16 C 247.459 325.134 249.013 327.516 249.933 329.91 C 251.358 333.619 261.894 350.265 262.053 351.658 C 262.748 357.726 266.938 359.339 272.024 359.61 C 280.601 360.068 288.361 362.963 296.111 367.249 C 296.446 367.456 303.97 373.403 304.92 374.574 C 305.395 375.274 305.726 375.708 306.211 376.367 C 306.875 380.849 304.695 380.641 301.475 379.102 C 301.107 378.887 300.771 378.683 300.602 378.581 C 294.427 374.619 288.491 370.536 280.422 372.277 C 280.116 372.461 280.183 372.553 280.13 372.531 C 278.528 374.679 279.781 376.564 280.631 378.533 C 284.291 387.011 289.19 394.927 292.105 403.736 C 292.514 404.969 293.164 406.171 293.166 407.529 C 293.167 408.754 292.798 409.843 291.719 410.505 C 290.517 411.242 289.467 410.63 288.583 409.848 C 285.86 407.437 265.844 384.691 263.761 382.581 C 262.585 381.896 261.655 381.48 260.371 382.284 C 260.199 382.377 258.299 391.793 258.279 393.107 C 258.241 395.602 258.307 398.097 258.249 400.591 C 258.218 401.914 258.319 403.437 256.77 403.978 C 255.029 404.586 254.048 403.329 253.096 402.105 C 250.297 398.509 249.418 393.939 246.788 389.8 C 246.587 389.441 243.027 383.962 239.351 384.222 C 238.165 385.224 233.319 392.852 230.85 391.898 C 228.29 390.908 229.232 388.173 229.469 386.21 C 229.72 384.133 232.398 379.251 232.504 379.083 C 234.541 375.82 237.636 373.794 239.899 371.02 C 242.71 367.575 245.363 363.995 243.681 358.783 C 243.512 358.484 243.321 358.138 243.223 357.966 C 241.065 354.723 223.638 325.728 222.711 323.125 C 220.733 317.565 223.195 312.277 228.532 310.156 C 236.232 307.097 243.467 303.113 251.124 299.099 C 251.451 298.887 251.804 298.704 251.979 298.609 C 261.267 293.353 270.545 288.498 280.75 283.274 C 273.943 283.018 268.551 284.93 263.193 286.81 C 249.506 291.611 236.436 297.81 223.56 304.451 C 221.264 305.635 219.64 307.514 217.385 309.235 C 216.532 309.963 215.981 310.502 215.233 311.254 C 214.668 312.115 208.889 314.957 209.78 319.916 C 210.801 325.594 218.637 333.551 220.092 336.024 C 223.834 342.384 222.225 348.93 213.766 349.911 C 205.731 352.507 197.865 351.68 189.588 351.236 C 188.727 350.987 188.307 350.903 187.568 350.869 C 177.649 350.088 168.404 347.974 159.52 343.122 C 159.181 342.912 158.93 342.595 158.737 342.536 C 157.786 342.23 139.904 327.287 138.473 325.884 C 136.053 324.128 135.191 320.693 131.339 321.269 Z" style="fill: rgb(20, 153, 17);"/>
  <path opacity="1.000000" stroke="none" d="M 402.868 184.633 C 404.067 185.992 404.977 187.172 406.089 188.602 C 407.936 192.305 410.083 195.443 412.409 198.461 C 413.844 200.322 414.881 202.365 415.508 204.626 C 416.866 209.519 415.603 211.194 410.526 210.596 C 404.992 209.943 399.629 211.114 393.814 211.728 C 392.914 211.996 392.392 212.108 391.476 212.252 C 383.015 213.717 375.334 216.575 367.103 218.794 C 365.435 219.259 304.577 231.345 312.123 227.005 C 308.41 228.813 310.153 224.725 313.205 223.37 C 314.975 222.584 340.824 219.372 342.745 218.122 C 343.028 217.855 350.251 205.751 352.962 195.327 C 355.687 184.843 353.896 176.036 352.71 174.708 C 351.537 173.159 343.957 171.11 343.219 168.389 C 343.304 167.749 343.39 167.502 343.724 166.949 C 346.323 165.294 348.423 166.524 350.593 167.252 C 363.589 171.613 375.947 177.631 389.29 182.105 C 391.009 182.908 392.087 184.595 394.005 183.278 C 397.178 181.1 399.895 182.775 402.868 184.633 Z" style="fill: rgb(20, 153, 17);"/>
  <path opacity="1.000000" stroke="none" d="M 338.129 162.293 C 339.772 163.24 358.486 169.095 348.749 170.198 C 356.641 175.384 337.67 168.356 336.859 168.05 C 335.753 167.516 332.475 166.057 331.541 165.881 C 330.375 165.637 317.638 166.814 316.146 166.032 C 315.532 165.228 322.209 162.62 323.168 161.296 C 323.681 160.589 326.374 160.165 326.602 159.927 C 336.53 149.542 346.309 151.644 357.255 159.697 C 358.988 160.972 360.519 162.521 362.469 164.017 C 363.266 164.354 363.518 164.755 363.491 165.665 C 363.194 166.477 362.891 166.864 362.184 167.355 C 356.155 167.4 352.292 163.303 347.673 160.865 C 344.839 159.368 342.122 157.796 338.766 158.482 C 337.653 158.709 336.184 158.785 335.906 160.087 C 335.584 161.596 337.186 161.749 338.129 162.293 Z" style="fill: rgb(20, 153, 17);"/>
  <path opacity="1.000000" stroke="none" d="M 374.777 163.238 C 376.834 163.109 395.088 171.274 395.606 172.37 C 395.934 173.632 394.081 176.722 392.214 176.313 C 386.25 172.74 381.631 167.712 374.899 165.337 C 374.466 164.558 374.434 164.06 374.777 163.238 Z" style="fill: rgb(20, 153, 17);"/>
  <path opacity="1.000000" stroke="none" d="M 323.758 161.242 C 324.109 162.262 324.125 163.077 324.1 164.196 C 322.624 167.072 320.07 166.405 317.886 166.493 C 310.971 166.772 304.033 166.159 296.676 167.043 C 295.622 167.163 295.021 167.14 293.994 166.932 C 292.176 166.025 291.074 165.139 292.872 163.288 C 297.294 162.443 322.922 161.097 323.758 161.242 Z" style="fill: rgb(20, 153, 17);"/>
  <path opacity="1.000000" stroke="none" d="M 292.598 163.29 C 293.101 163.514 296.531 164.351 296.333 166.134 C 296.254 166.842 294.008 166.651 293.174 167.433 C 292.087 168.452 292.361 170.367 292.361 170.367 C 292.408 173.504 293.212 179.137 292.833 179.612 C 291.672 180.176 291.2 179.655 290.029 179.036 C 288.054 173.979 285.838 169.373 287.191 166.322 C 288.048 164.39 291.663 165.092 292.598 163.29 Z" style="fill: rgb(20, 153, 17);"/>
  <path opacity="1.000000" stroke="none" d=" M403.120911,184.466049 C399.930328,184.296478 396.685394,180.452423 393.445557,185.135345 C392.861450,185.979630 391.056030,184.834045 389.858093,183.870468 C389.500305,182.509567 390.262482,181.777573 390.737000,180.571411 C391.076385,179.765488 391.339569,179.338440 391.976501,178.722168 C393.084167,178.237686 393.839996,178.299744 394.568115,179.132965 C396.875916,182.059647 400.872986,181.436111 403.120911,184.466049 z" style="fill: rgb(20, 153, 17);"/>
  <path opacity="1.000000" stroke="none" d="M 289.458 177.453 C 290.187 177.001 290.954 176.963 292.105 177.006 C 293.404 177.656 293.079 181.054 293.606 185.499 C 293.83 187.384 293.526 195.125 297.896 201.511 C 303.09 209.103 309.271 216.079 309.382 217.658 C 309.493 219.24 300.206 211.616 294.815 202.319 C 289.702 193.499 290.001 182.585 290.006 182.321 C 289.832 180.623 289.664 179.246 289.458 177.453 Z" style="fill: rgb(20, 153, 17);"/>
  <path opacity="1.000000" stroke="none" d="M 383.323 174.569 C 381.965 176.961 380.573 175.363 379.48 174.933 C 373.721 172.67 362.365 168.195 356.464 165.523 C 348.247 161.383 356.929 163.203 357.484 162.696 C 360.325 162.956 380.245 169.444 383.323 174.569 Z" style="fill: rgb(20, 153, 17);"/>
</svg>