<?xml version="1.0" encoding="utf-8"?>
<svg viewBox="-133.139 209.677 1121.925 691.013" xmlns="http://www.w3.org/2000/svg" xmlns:bx="https://boxy-svg.com">
  <path opacity="1.000000" stroke="none" d="M 842.919 623.013 C 840.649 621.516 834.377 618.29 831.753 616.842 C 815.101 607.655 798.973 600.715 792.953 599.953 C 788.443 600.221 795.553 637.507 792.992 636.409 C 791.624 635.823 777.609 625.041 778.644 613.393 C 779.591 602.731 780.326 594.186 779.025 593.601 C 766.515 587.979 737.925 565.052 728.323 557.548 C 723.07 553.442 717.678 549.613 711.68 546.639 C 707.309 544.471 704.639 540.712 702.719 536.306 C 698.798 527.305 696.98 517.584 693.03 508.575 C 690.806 503.505 688.271 498.7 684.86 494.372 C 680.769 489.18 680.575 482.42 678.674 476.036 C 669.9 487.088 669.56 490.48 668.841 480.182 C 668.199 483.424 664.93 488.889 662.316 489.33 C 661.07 489.54 662.205 484.411 660.15 484.368 C 658.138 484.327 657.365 493.587 655.813 493.798 C 654.036 494.038 653.173 489.552 652.165 489.507 C 650.778 489.444 648.078 496.127 647.215 498.614 C 642.64 493.657 646.35 495.09 640.517 502.298 C 638.552 499.967 634.632 495.105 633.735 495.223 C 632.658 495.364 634.493 502.052 632.468 504.219 C 631.205 505.57 628.814 500.752 626.675 500.663 C 627.242 502.757 627.785 504.763 628.403 507.043 C 623.782 507.999 619.457 506.491 615.183 505.849 C 601.197 503.749 589.65 507.458 580.527 518.572 C 573.879 526.669 566.866 534.468 560.014 542.398 C 556.032 547.007 553.521 552.418 551.664 558.133 C 549.437 564.989 550.637 567.994 557.35 570.761 C 570.031 575.988 581.672 582.871 592.458 591.32 C 599.798 597.069 607.176 602.876 613.2 609.93 C 622.887 621.274 635.256 623.769 649.135 622.755 C 656.807 622.194 663.819 620.225 668.914 613.922 C 674.23 620.889 672.103 628.367 664.22 631.065 C 661.713 631.923 659.106 632.481 656.567 633.251 C 654.04 634.017 651.542 634.876 648.672 635.812 C 656.854 639.832 665.334 641.452 674.004 642.278 C 678.803 642.736 683.617 643.202 688.431 643.289 C 692.368 643.361 692.358 645.962 692.593 648.653 C 692.857 651.688 687.839 645.485 684.547 645.639 C 677.676 645.96 674.869 652.611 668.086 651.913 C 662.405 651.328 656.67 651.277 650.115 650.947 C 656.292 657.477 618.469 660.4 609.062 647.027 C 604.62 640.713 597.657 636.837 590.9 633.286 C 576.859 625.907 563.929 616.853 551.319 607.373 C 540.063 598.911 527.404 593.024 515.249 586.187 C 499.581 577.374 496.059 563.162 505.295 547.818 C 509.627 540.621 515.325 534.624 520.893 528.451 C 526.091 522.687 531.798 517.208 533.925 509.293 C 536.317 500.391 533.157 495.854 523.939 495.398 C 515.017 494.957 506.493 497.189 498.165 499.97 C 477.329 506.928 456.545 514.124 435.145 519.118 C 404.472 526.278 373.363 529.547 341.791 528.433 C 325.337 527.853 308.913 527.086 292.532 525.477 C 289.533 525.182 287.86 525.825 285.924 528.729 C 277.093 541.983 265.918 553.099 252.921 562.351 C 244.562 568.301 209.652 570.391 199.196 574.859 C 215.141 577.614 232.725 607.646 222.99 604.165 C 223.475 606.977 240.358 617.613 245.78 623.47 C 247.36 625.177 250.195 627.031 248.566 629.624 C 246.794 632.443 243.687 630.788 241.296 629.998 C 234.404 627.723 192.575 626.176 192.742 629.821 C 192.791 630.884 193.352 632.362 191.823 632.827 C 190.48 633.236 189.779 631.986 189.036 631.133 C 184.169 625.544 180.845 619.13 178.601 612.075 C 176.794 606.394 174.732 600.793 172.715 595.181 C 171.533 591.894 169.157 591.067 165.683 591.1 C 153.672 591.212 141.847 607.637 140.535 617.485 C 139.594 624.554 140.689 631.441 141.859 638.288 C 143.029 645.133 142.892 651.821 141.453 658.775 C 135.111 657.134 124.442 646.735 123.933 645.709 C 122.175 642.472 120.659 642.232 120.532 639.323 C 119.766 621.846 122.505 605.45 134.624 591.8 C 137.55 588.505 140.372 585.117 143.436 581.546 C 138.552 580.022 125.505 579.195 124.471 578.857 C 113.727 575.341 102.754 577.935 91.896 577.575 C 90.902 577.542 89.904 577.732 88.906 577.754 C 75.799 578.043 67.993 573.707 76.028 558.462 C 79.516 551.843 82.086 544.796 84.262 537.689 C 88.618 523.465 95.476 522.8 109.353 525.942 C 114.554 527.119 117.984 530.719 121.263 534.496 C 122.461 535.875 123.41 537.106 125.308 535.585 C 131.993 530.228 139.738 526.017 144.449 517.688 C 141.305 517.369 140.259 515.153 139.322 512.691 C 136.607 505.548 131.862 501.221 123.732 501.071 C 120.872 501.017 117.829 500.77 115.339 498.553 C 110.991 494.681 110.003 490.984 112.629 485.78 C 118.516 474.114 126.708 464.003 135.319 454.383 C 143.579 445.154 153.158 432.349 161.84 423.541 C 163.357 422.002 184.535 441.68 189.68 455.149 C 188.101 440.995 198.206 441.964 203.885 436.661 C 205.337 435.305 183.481 405.161 184.827 403.906 C 192.762 396.508 212.408 379.772 219.519 374.998 C 227.944 378.261 245.106 394.743 249.963 404.355 C 251.49 397.903 264.352 390.657 270.618 386.669 C 274.253 384.355 240.683 360.548 240.683 360.548 C 250.987 354.779 265.573 341.647 271.074 341.287 C 274.456 339.315 281.363 337.267 280.786 335.213 C 282.242 334.518 301.533 359.751 305.892 367.002 C 308.78 359.234 315.001 358.761 320.511 356.501 C 323.889 353.001 306.716 324.065 306.716 324.065 C 311.954 322.005 321.943 318.891 326.166 317.307 C 331.574 315.28 336.719 313.647 341.703 312.339 C 344.393 311.633 361.818 339.231 364.43 338.703 C 369.115 337.755 382.085 335.592 387.714 335.081 C 392.855 334.615 376.536 304.012 376.536 304.012 C 387.637 303.641 396.157 300.513 409.411 300.933 C 416.965 301.172 422.579 304.274 430.003 305.101 C 433.633 305.505 441.759 334.163 445.361 334.694 C 452.286 335.716 471.849 336.154 475.221 342.643 C 471.16 327.019 473.017 309.808 473.017 309.808 C 484.098 312.79 507.21 318.86 518.139 322.575 C 521.794 323.818 546.059 357.066 571.668 379.381 C 575.369 382.606 539.193 331.448 540.491 327.113 C 543.911 315.693 545.186 304.018 543.786 292.127 C 543.459 289.348 543.186 289.038 540.198 285.693 C 539.449 287.095 538.768 288.495 537.977 289.83 C 533.626 297.176 532.465 297.501 524.418 294.409 C 503.031 286.192 481.31 278.983 458.571 275.674 C 434.294 272.142 409.936 271.105 385.434 274.146 C 357.713 277.585 330.439 282.688 304.099 292.269 C 277.415 301.976 252.821 315.657 228.804 330.621 C 205.671 345.034 186.759 364.217 167.259 383.331 C 165.214 382.776 165.733 384.661 164.89 385.412 C 162.963 387.937 153.98 397.177 151.888 399.565 C 149.845 399.446 155.797 392.577 154.737 394.524 C 151.575 400.335 146.431 402.049 139.843 399.591 C 139.583 399.366 139.61 399.347 139.603 399.362 C 137.822 396.671 140.164 394.281 140.393 391.45 C 143.956 388.249 147.939 386.344 152.221 384.289 C 154.101 385.091 154.686 384.043 155.427 382.685 C 156.738 381.509 157.86 380.573 158.983 379.638 C 143.091 374.989 143.628 374.06 163.004 364.017 C 169.174 361.797 175.07 359.655 180.69 356.75 C 177.36 353.493 166.065 350.917 173.907 346.212 C 179.448 344.53 194.365 338.784 200.021 337.528 C 203.089 336.846 198.484 329.906 196.976 328.139 C 194.26 324.956 218.563 319.9 226.491 315.722 C 224.699 313.461 220.307 310.052 218.707 307.984 C 216.792 305.507 240.297 301.971 247.361 304.058 C 251.433 305.26 239.331 287.68 244.69 287.922 C 251.296 288.221 272.16 295.169 274.126 292.855 C 276.027 290.618 268.35 287.145 264.639 280.606 C 279.993 277.348 285.903 279.67 292.875 283.594 C 292.915 280.282 287.797 274.145 289.449 269.107 C 301.042 270.333 311.237 278.116 313.647 276.951 C 315.769 275.925 309.854 263.346 311.9 263.74 C 324.097 266.088 326.471 266.287 330.535 271.863 C 331.587 273.307 328.785 256.777 329.483 256.341 C 331.735 254.935 347.619 267.652 350.048 266.754 C 356.426 264.397 346.497 248.165 350.223 250.068 C 358.323 254.206 370.553 259.248 379.112 263.611 C 380.132 257.693 375.187 244.922 378.628 247.352 C 382.957 250.41 408.726 257.96 410.328 263.626 C 411.447 256.86 409.354 242.602 412.177 245.32 C 417.455 250.403 429.99 255.427 433.656 262.892 C 434.11 256.025 434.416 240.747 437.233 243.955 C 444.076 251.75 456.171 257.808 458.353 269.566 C 463.996 262.519 456.745 254.237 462.402 247.651 C 469.997 254.298 479.057 263.059 482.839 273.305 C 485.137 267.619 486.376 262.754 488.891 258.437 C 491.263 254.365 500.516 274.845 501 276.149 C 501.15 269.159 502.897 266.084 503.503 258.718 C 508.476 267.47 518.074 275.385 518.864 285.629 C 521.134 280.057 518.809 275.776 519.803 270.476 C 519.987 269.494 531.613 280.506 530.639 287.129 C 536.668 281.9 537.181 279 533.423 272.753 C 527.16 262.341 518.212 254.945 507.516 249.43 C 502.335 246.758 497.938 243.234 497.67 236.752 C 497.341 228.793 502.914 223.164 512.229 221.321 C 522.398 219.31 532.581 220.488 542.581 221.74 C 558.031 223.673 573.908 223.712 588.64 229.68 C 598.14 233.529 607.14 238.631 617.674 239.587 C 619.922 239.791 622.067 239.828 623.971 239.065 C 644.411 230.873 665.876 229.466 687.526 229.295 C 693.826 229.246 700.136 229.404 706.425 229.757 C 707.75 229.832 735.492 225.083 743.463 225.604 C 745.937 225.766 747.376 225.181 748.501 222.872 C 750.716 218.327 754.907 216.19 759.606 215.435 C 772.329 213.391 785.111 213.207 797.9 214.985 C 801.515 215.488 805.152 215.837 808.763 216.363 C 811.837 216.811 814.222 218.59 814.526 221.645 C 816.153 237.993 819.218 254.204 818.713 270.763 C 818.477 278.487 817.846 286.098 815.356 293.378 C 814.373 296.251 815.06 297.228 817.367 298.749 C 823.89 303.049 829.21 308.422 829.905 316.819 C 830.184 320.189 829.648 323.45 827.052 326.279 C 829.21 314.742 824.288 306.731 814.825 300.733 C 812.458 299.233 810.305 297.394 807.725 295.509 C 812.752 286.067 813.563 275.221 813.676 265.121 C 813.818 252.447 810.83 240.654 809.391 228.133 C 809.032 225.012 806.418 223.291 803.45 222.591 C 801.329 222.09 799.196 221.815 797.022 221.81 C 787.867 221.788 778.711 221.793 769.555 221.808 C 762.971 221.818 757.045 223.693 752.246 228.326 C 749.528 230.951 746.372 231.696 742.718 231.851 C 735.368 232.163 732.79 231.324 726.719 232.044 C 737.151 233.976 740.878 232.669 751.213 253.063 C 746.994 236.973 751.452 229.886 767.839 226.723 C 777.986 224.765 788.266 223.879 798.56 223.234 C 803.56 222.921 806.594 225.014 807.647 229.937 C 811.377 247.365 814.269 264.887 810.989 282.768 C 810.268 286.698 809.403 290.608 806.068 293.739 C 802.295 289.567 797.493 287.188 793.068 284.302 C 781.406 276.698 768.584 270.917 757.825 261.882 C 756.984 261.176 755.518 260.244 754.788 260.535 C 750.233 262.351 748.243 257.599 746.46 256.251 C 744.967 254.209 744.358 253.72 742.289 255.959 C 735.826 262.953 733.619 271.747 730.987 280.867 C 729.723 283.167 728.9 294.383 724.977 296.427 C 722.899 290.892 729.515 271.841 730.875 265.318 C 732.313 258.421 735.298 252.128 734.334 244.899 C 733.851 241.277 732.107 239.214 728.687 239.168 C 714.585 238.977 700.687 236.143 686.399 237.38 C 673.328 238.512 660.203 239.054 647.167 240.795 C 637.595 242.073 628.539 245.883 618.77 246.243 C 615.745 246.354 612.831 246.45 609.884 245.702 C 606.171 244.76 602.357 244.025 598.886 242.438 C 583.314 234.433 530.983 229.048 518.901 229.746 C 516.524 229.692 514.813 230.514 512.847 231.637 C 512.369 231.96 512.18 232.092 511.715 232.432 C 507.613 237.426 507.857 239.512 513.312 242.936 C 533.101 255.359 544.598 274.086 553.355 295.353 C 559.493 309.242 561.175 323.931 564.695 338.151 C 568.43 353.244 578.352 362.218 593.416 366.831 C 618.11 374.394 642.744 373.529 667.899 369.955 C 667.899 369.955 722.174 357.82 749.747 353.979 C 768.513 351.364 787.231 348.394 805.951 345.458 C 812.182 344.481 818.377 343.311 824.836 343.202 C 824.791 337.648 821.982 332.993 820.56 327.712 C 824.397 330.581 828.414 341.241 827.339 345.308 C 826.556 348.272 823.878 348.456 821.733 348.252 C 816.038 347.71 814.414 350.548 814.672 355.568 C 814.948 360.955 813.867 366.181 812.1 371.212 C 811.269 373.58 814.641 377.676 809.298 378.27 C 806.396 378.593 803.512 379.068 800.281 379.522 C 797.218 380.473 798.573 379.739 796.629 380.471 C 796.629 386.128 796.594 390.859 796.641 395.588 C 796.671 398.72 796.206 400.553 792.098 399.705 C 788.108 398.881 783.792 399.608 779.74 396.259 C 779.74 402.312 779.774 407.675 779.729 413.036 C 779.699 416.655 778.183 418.286 774.405 416.897 C 771.329 415.767 768.199 414.783 764.799 413.634 C 764.799 417.925 764.86 422.154 764.784 426.38 C 764.672 432.6 764.12 432.864 758.058 431.541 C 756.002 431.092 754.594 429.967 752.586 428.234 C 752.586 431.529 752.543 434.262 752.601 436.994 C 752.641 438.864 751.85 440.221 750.251 441.056 C 748.383 442.031 747.66 440.292 746.567 439.39 C 745.199 438.261 744.148 436.595 742.037 436.521 C 740.724 439.472 742.691 442.34 742.085 445.29 C 740.969 450.724 739.973 451.21 735.74 447.855 C 734.59 446.944 733.52 445.933 731.727 444.37 C 731.955 447.971 731.06 450.712 730.398 453.502 C 729.59 456.91 728.041 457.624 725.68 454.565 C 724.471 452.999 723.198 451.483 721.759 449.665 C 721.177 449.031 720.785 448.689 720.066 449.07 C 720.208 450.578 720.602 451.851 720.726 453.15 C 720.946 455.455 722.094 460.964 719.197 459.15 C 716.607 457.528 717.502 457.497 713.712 455.977 C 712.544 455.509 709.55 455.047 707.722 456.469 C 706.116 457.718 707.583 459.589 708.057 461.013 C 712.574 474.614 721.036 485.818 729.639 497.03 C 735.467 504.625 740.969 512.676 740.367 523.059 C 740.267 524.775 741.461 525.337 742.677 525.893 C 757.51 532.666 769.123 543.624 779.948 555.361 C 792.793 569.289 826.612 574.286 819.044 576.986 C 825.297 580.801 831.89 581.028 838.273 581.24 C 846.58 581.516 854.878 581.529 863.023 583.403 C 866.544 584.213 870.156 584.979 873.51 589.686 C 854.93 590.68 837.432 586.854 819.925 589.267 C 822.895 593.951 845.954 617.941 842.919 623.013 Z" style="fill: rgb(18, 18, 18);"/>
  <path opacity="1.000000" stroke="none" d="M 722.962 313.77 C 728.187 313.187 743.719 260.759 745.478 263.09 C 752.36 268.393 778.42 289.196 792.109 294.118 C 823.892 305.524 819.73 338.187 811.655 339.451 C 788.858 343.02 765.87 345.454 743.305 350.4 C 723.232 354.8 703.41 360.491 683.105 363.647 C 665.871 366.326 648.414 371.7 631.028 369.167 C 606.683 365.62 602.7 362.623 590.398 358.683 C 574.557 353.61 559.952 301.869 555.085 290.474 C 551.705 287.347 539.501 261.274 526.62 252.775 C 524.947 251.671 508.979 242.287 507.299 241.209 C 501.666 237.598 509.209 236.007 512.995 229.984 C 524.84 233.126 563.616 234.641 574.94 238.65 C 589.742 241.489 594.996 243.811 601.896 245.764 C 606.069 246.945 607.67 246.988 608.487 251.749 C 609.411 257.131 611.302 261.63 614.069 267.264 C 618.192 275.657 623.912 284.918 627.962 293.304 C 625.069 282.655 611.969 259.858 611.176 256.61 C 610.225 252.717 611.182 251.418 615.24 251.07 C 618.392 250.799 621.571 251.041 624.729 250.723 C 627.768 250.417 628.537 252.037 628.087 254.711 C 625.626 269.307 632.207 282.013 636.883 295.011 C 639.519 302.338 646.562 305.15 653.325 307.825 C 666.128 312.889 679.412 313.93 693.023 313.084 C 701.14 312.58 714.604 316.169 722.962 313.77 Z" style="fill: rgb(18, 18, 18);"/>
  <path opacity="1.000000" stroke="none" d="M 342.816 737.656 C 367.008 743.555 383.291 757.664 388.501 781.916 C 391.675 796.69 387.922 811.337 381.673 825.032 C 379.068 830.742 375.947 836.301 372.41 841.484 C 366.751 849.778 358.757 852 351.505 846.366 C 350.634 845.69 349.42 845.454 348.155 844.925 C 349.208 851.853 350.035 858.546 351.295 865.156 C 352.213 869.971 349.992 872.971 346.664 875.894 C 336.28 885.014 324.224 891.288 311.717 896.823 C 304.332 900.092 297.215 904.018 289.296 906.435 C 288.01 896.363 290.534 886.916 291.401 877.37 C 292.098 869.697 292.411 862.107 291.32 854.467 C 290.754 850.509 290.95 847.694 296.261 846.38 C 307.33 843.642 321.966 841.794 331.165 834.702 C 331.248 834.367 406.081 781.951 346.395 756.107 C 333.371 751.098 314.514 735.925 290.781 761.702 C 279.387 770.124 275.538 809.837 294.609 812.638 C 303.144 813.891 329.173 819.923 335.449 808.339 C 339.424 801.002 352.964 781.294 342.949 774.257 C 337.052 770.113 314.998 765.903 306.408 773.682 C 302.278 777.422 292.05 793.978 298.18 798.572 C 301.581 801.121 321.273 807.45 328.783 802.483 C 333.297 799.498 341.441 784.318 336.349 779.702 C 331.251 775.08 313.395 779.335 313.357 779.517 C 310.601 777.816 310.701 777.332 313.822 774.1 C 313.766 774.026 335.699 769.007 340.782 777.147 C 345.926 785.383 337.376 804.339 332.07 807.736 C 320.028 815.446 295.388 809.793 291.374 805.543 C 281.697 795.296 289.423 768.929 297.157 763.839 C 310.676 754.941 346.082 760.821 351.532 766.711 C 363.997 780.182 351.203 807.86 344.917 816.477 C 333.971 831.481 301.697 827.621 291.567 826.352 C 268.134 823.416 260.82 783.18 264.208 769.76 C 272.908 742.112 314.025 730.776 326.554 729.111 C 333.106 728.241 339.703 727.239 346.71 728.968 C 348.636 728.67 356.497 730.978 359.075 732.258 C 360.458 732.647 374.005 741.013 376.008 742.617 C 375.959 746.689 373.148 746.997 369.953 747.269 C 368.115 746.339 366.682 745.475 365.073 744.342 C 363.229 742.668 347.922 736.048 343.509 736.128 C 339.657 735.903 336.95 736.09 334.275 736.507 C 333.168 736.638 339.307 736.684 342.816 737.656 Z" style="fill: rgb(18, 18, 18);" transform="matrix(0.630431, 0.776246, -0.776246, 0.630431, 757.126282, 44.183281)"/>
  <path opacity="1.000000" stroke="none" d="M 410.658 801.772 C 408.48 791.338 416.787 795.092 417.435 804.009 C 420.355 822.068 400.846 861.719 370.049 869.058 C 315.802 885.26 250.662 869.216 237.632 868.273 C 218.186 862.919 169.342 845.234 121.675 803.939 C 94.014 779.977 61.878 745.33 56.011 715.626 C 50.473 704.356 47.71 667.364 44.428 643.609 C 38.167 598.302 49.772 556.391 67.492 515.489 C 73.039 502.685 79.571 490.393 86.445 478.265 C 88.338 474.925 90.366 471.706 92.82 468.758 C 93.243 468.249 86.375 465.216 89.999 463.995 C 100.168 460.57 97.427 461.04 100.648 459.204 C 101.734 458.586 103.76 456.292 102.528 456.531 C 86.073 459.729 97.159 454.082 107.028 449.843 C 106.707 449.332 98.373 448.461 101.457 444.946 C 104.847 441.082 112.747 436.497 116.652 434.882 C 105.912 434.747 97.409 437.595 126.257 420.82 C 123.873 419.683 121.829 418.228 121.451 415.698 C 120.961 412.426 124.228 412.469 125.973 411.268 C 130.853 407.911 136.194 405.145 139.627 399.721 C 143.11 399.436 146.626 400.374 150.01 398.069 C 151.967 396.737 153.502 395.886 153.805 393.081 C 154.154 389.856 156.245 389.534 158.622 392.365 C 153.562 399.141 148.324 405.555 143.131 412.004 C 115.833 445.903 92.575 482.453 73.715 521.608 C 56.347 557.667 48.132 595.883 50.719 636.165 C 53.775 683.753 64.683 729.567 78.502 744.124 C 81.868 749.198 104.21 774.483 124.385 797.026 C 156.702 829.948 229.139 858.904 241.676 860.953 C 259.055 863.793 320.502 876.798 365.141 861.827 C 366.373 862.125 382.863 860.258 399.547 840.521 C 410 830.415 409.029 818.913 410.658 801.772 Z" style="fill: rgb(18, 18, 18);"/>
  <path opacity="1.000000" stroke="none" d="M 109.823 643.897 C 111.583 646.268 121.673 655.515 124.874 657.324 C 131.871 661.277 132.259 662.725 131.221 670.442 C 127.776 696.053 98.874 708.56 75.719 693.442 C 71.971 690.996 69.462 687.501 67.396 683.694 C 56.114 662.907 53.586 640.624 56.256 617.476 C 56.408 616.155 56.46 614.82 56.648 613.505 C 57.942 604.464 60.944 583.212 83.513 590.18 C 96.028 589.779 112.488 601.37 111.439 612.594 C 111.023 617.037 110.505 621.523 109.421 625.842 C 107.448 633.703 106.786 636.159 109.823 643.897 Z" style="fill: rgb(18, 18, 18);" transform="matrix(0.984044, 0.177925, -0.177925, 0.984044, 116.144974, -6.348053)"/>
  <path opacity="1.000000" stroke="none" d="M 250.749 802.909 C 248.222 809.4 246.453 815.768 242.581 821.292 C 238.482 827.139 233.284 831.024 226.093 832.058 C 213.269 833.904 200.464 835.958 187.434 835.224 C 184.455 835.056 181.452 834.904 178.517 834.406 C 167.465 832.532 168.484 832.567 171.525 821.394 C 173.136 815.471 176.993 810.462 180.095 805.188 C 183.457 799.472 184.866 793.254 185.387 786.752 C 185.507 785.261 185.532 783.755 185.751 782.278 C 187.26 772.077 188.436 771.056 198.683 770.9 C 209.786 770.731 220.888 770.531 231.945 769.337 C 233.262 769.195 234.603 769.257 235.934 769.258 C 244.812 769.267 246.728 770.82 249.048 779.977 C 250.648 786.855 251.893 801.531 250.749 802.909 Z" style="fill: rgb(18, 18, 18);" transform="matrix(0.840921, 0.541157, -0.541157, 0.840921, 467.636383, 13.803752)"/>
  <path opacity="1.000000" stroke="none" d="M 173.893 774.295 C 164.396 782.755 153.622 784.304 141.308 782.343 C 122.81 779.396 105.94 772.749 89.283 762.72 C 97.184 759.692 104.421 756.782 111.762 754.159 C 115.842 752.701 118.003 750.573 117.502 745.826 C 117.007 741.125 118.698 736.629 120.556 732.353 C 123.186 726.299 127.901 723.35 134.552 722.916 C 145.284 722.217 155.39 724.705 165.153 728.657 C 177.892 733.813 182.897 744.893 186.043 757.205 C 186.124 757.523 186.201 757.863 186.176 758.185 C 185.353 769.059 174.23 773.514 173.893 774.295 Z" style="fill: rgb(18, 18, 18);" transform="matrix(0.887706, 0.460411, -0.460411, 0.887706, 362.133179, 21.138641)"/>
  <path opacity="1.000000" stroke="none" d="M 123.655 690.503 C 125.797 687.529 127.678 684.797 131.09 682.144 C 128.724 689.736 126.952 696.631 122.689 702.561 C 121.621 704.047 120.555 705.536 119.545 707.063 C 116.291 711.984 116.519 713.934 120.889 717.549 C 127.851 723.306 129.568 722.296 119.476 727.65 C 113.213 730.973 106.565 733.712 99.207 733.743 C 97.702 733.749 96.309 733.639 94.92 732.819 C 89.651 729.707 71.043 710.818 67.272 704.289 C 74.768 708.532 82.013 711.466 90.024 712.074 C 97.242 712.623 103.882 711.615 109.348 706.249 C 114.336 701.351 119.313 696.461 123.655 690.503 Z" style="fill: rgb(18, 18, 18);" transform="matrix(0.988629, 0.150375, -0.150375, 0.988629, 107.584824, -6.864337)" bx:origin="0.5 0.5"/>
  <path opacity="1.000000" stroke="none" d="M 143.849 704.585 C 144.34 703.905 160.103 718.273 183.508 729.089 C 205.088 739.061 234.442 745.489 235.196 746.305 C 225.803 756.443 164.022 731.977 163.557 730.929 C 152.918 725.53 143.033 705.715 143.849 704.585 Z" style="fill: rgb(18, 18, 18);" transform="matrix(0.928216, 0.372041, -0.372041, 0.928216, 283.950684, -18.338928)"/>
  <path opacity="1.000000" stroke="none" d="M 140.235 391.216 C 141.215 393.814 140.207 396.241 139.632 399.051 C 134.358 394.493 134.358 394.493 140.235 391.216 Z" style="fill: rgb(18, 18, 18);"/>
  <path opacity="1.000000" stroke="none" d="M 155.313 382.487 C 155.676 383.751 155.561 385.099 154.644 386.045 C 152.89 387.854 152.769 386.26 152.589 384.584 C 153.388 383.665 154.2 383.097 155.313 382.487 Z" style="fill: rgb(18, 18, 18);"/>
  <path opacity="1.000000" stroke="none" d="M 165.014 385.63 C 164.615 381.972 164.615 381.972 166.81 383.117 C 166.378 384.181 165.828 384.87 165.014 385.63 Z" style="fill: rgb(18, 18, 18);"/>
  <path opacity="1.000000" stroke="none" d="M 807.068 297.785 C 807.138 297.74 806.998 297.83 807.068 297.785 Z" style="fill: rgb(18, 18, 18);"/>
  <path opacity="1.000000" stroke="none" d="M 777.61 631.354 C 777.456 631.517 777.326 631.707 777.195 631.897 C 777.239 631.666 777.282 631.435 777.498 631.324 C 777.672 631.444 777.634 631.382 777.61 631.354 Z" style="fill: rgb(18, 18, 18);"/>
  <path opacity="1.000000" stroke="none" d="M 394.628 574.983 C 394.447 574.778 394.259 574.54 394.07 574.302 C 394.2 574.388 394.329 574.473 394.562 574.779 C 394.666 575 394.621 574.95 394.628 574.983 Z" style="fill: rgb(18, 18, 18);"/>
  <path opacity="1.000000" stroke="none" d="M 775.32 590.019 C 775.521 589.585 775.903 589.349 776.284 589.112 C 776.349 589.505 776.413 589.898 776.173 590.448 C 775.746 590.475 775.623 590.346 775.32 590.019 Z" style="fill: rgb(18, 18, 18);"/>
  <path opacity="1.000000" stroke="none" d="M 241.25 478.896 C 241.186 478.922 241.314 478.87 241.25 478.896 Z" style="fill: rgb(18, 18, 18);"/>
  <path opacity="1.000000" stroke="none" d="M 711.408 310.774 C 717.856 308.314 719.314 302.222 722.025 297.243 C 723.423 294.676 723.917 291.617 725.061 288.512 C 726.579 287.715 727.832 287.378 728.81 289.185 C 727.812 295.564 726.014 301.19 723.554 306.61 C 722.643 308.616 721.528 310.416 718.774 310.817 C 716.532 311.221 714.502 311.355 712.043 311.413 C 711.472 311.21 711.331 311.083 711.408 310.774 Z" style="fill: rgb(18, 18, 18);"/>
  <path opacity="1.000000" stroke="none" d="M 565.753 457.478 C 565.667 458.201 565.344 458.718 565.022 459.234 C 564.916 458.634 564.809 458.035 564.866 457.155 C 565.191 457.007 565.354 457.139 565.753 457.478 Z" style="fill: rgb(18, 18, 18);"/>
  <path opacity="1.000000" stroke="none" d="M 701.371 308.756 C 663.611 313.659 645.906 301.633 641.454 294.983 C 633.91 283.715 631.885 271.058 634.801 257.83 C 635.642 254.02 638.637 251.353 642.089 249.358 C 650.682 244.391 660.303 243.679 669.82 242.325 C 682.549 240.516 715.762 241.115 719.518 241.723 C 726.689 242.883 731.831 250.289 730.303 257.695 C 727.696 270.34 724.319 282.741 718.748 294.525 C 715.105 302.229 709.566 307.151 701.371 308.756 Z" style="fill: rgb(18, 18, 18);"/>
  <path opacity="1.000000" stroke="none" d="M 710.246 310.908 C 710.217 310.862 710.422 311.16 710.422 311.16 C 710.422 311.16 710.409 311.053 710.288 310.996 C 710.168 310.939 710.275 310.953 710.246 310.908 Z" style="fill: rgb(18, 18, 18);"/>
  <path style="fill: rgb(18, 18, 18);" d="M -135.115 591.23 L 400.336 617.17 L 573.336 609.045 L 705.943 575.868 C 703.942 582.022 718.52 589.019 716.146 595.504 C 714.602 599.723 700.023 604.011 685.366 613.786 C 781.948 614.074 877.721 622.875 945.245 607.691 C 961.693 601.427 979.22 607.587 970.16 627.939 C 947.606 633.068 857.206 634.647 940.983 653.295 C 937.404 660.617 945.196 674.086 939.91 682.848 C 819.097 646.909 611.549 682.117 420.914 667.952 C 410.723 662.408 446.888 691.176 449.695 708.344 C 452.2 723.666 421.002 727.268 419.39 728.213 C 418.706 728.613 406.567 694.572 308.974 677.096 C 233.301 663.544 39.252 668.841 -127.091 669.688 C -214.979 670.135 -145.297 623.402 -135.115 591.23 Z" transform="matrix(0.997482, -0.070917, 0.070917, 0.997482, -45.122723, 33.136578)"/>
</svg>