<?xml version="1.0" encoding="utf-8"?>
<svg viewBox="10.425 209.677 903.044 587.256" xmlns="http://www.w3.org/2000/svg">
  <path opacity="1.000000" stroke="none" d="M 842.919 623.013 C 840.649 621.516 834.377 618.29 831.753 616.842 C 815.101 607.655 798.973 600.715 792.953 599.953 C 788.443 600.221 795.553 637.507 792.992 636.409 C 791.624 635.823 777.609 625.041 778.644 613.393 C 779.591 602.731 780.326 594.186 779.025 593.601 C 766.515 587.979 737.925 565.052 728.323 557.548 C 723.07 553.442 717.678 549.613 711.68 546.639 C 707.309 544.471 704.639 540.712 702.719 536.306 C 698.798 527.305 696.98 517.584 693.03 508.575 C 690.806 503.505 688.271 498.7 684.86 494.372 C 680.769 489.18 680.575 482.42 678.674 476.036 C 669.9 487.088 669.56 490.48 668.841 480.182 C 668.199 483.424 664.93 488.889 662.316 489.33 C 661.07 489.54 662.205 484.411 660.15 484.368 C 658.138 484.327 657.365 493.587 655.813 493.798 C 654.036 494.038 653.173 489.552 652.165 489.507 C 650.778 489.444 648.078 496.127 647.215 498.614 C 642.64 493.657 646.35 495.09 640.517 502.298 C 638.552 499.967 634.632 495.105 633.735 495.223 C 632.658 495.364 634.493 502.052 632.468 504.219 C 631.205 505.57 628.814 500.752 626.675 500.663 C 627.242 502.757 627.785 504.763 628.403 507.043 C 623.782 507.999 619.457 506.491 615.183 505.849 C 601.197 503.749 589.65 507.458 580.527 518.572 C 573.879 526.669 566.866 534.468 560.014 542.398 C 556.032 547.007 553.521 552.418 551.664 558.133 C 549.437 564.989 550.637 567.994 557.35 570.761 C 570.031 575.988 581.672 582.871 592.458 591.32 C 599.798 597.069 607.176 602.876 613.2 609.93 C 622.887 621.274 635.256 623.769 649.135 622.755 C 656.807 622.194 663.819 620.225 668.914 613.922 C 674.23 620.889 672.103 628.367 664.22 631.065 C 661.713 631.923 659.106 632.481 656.567 633.251 C 654.04 634.017 651.542 634.876 648.672 635.812 C 656.854 639.832 665.334 641.452 674.004 642.278 C 678.803 642.736 683.617 643.202 688.431 643.289 C 692.368 643.361 692.358 645.962 692.593 648.653 C 692.857 651.688 691.754 653.315 688.462 653.469 C 681.591 653.79 674.869 652.611 668.086 651.913 C 662.405 651.328 656.67 651.277 650.115 650.947 C 656.292 657.477 662.503 662.283 669.029 666.776 C 673.96 670.17 678.714 673.897 681.072 679.759 C 681.508 680.843 682.183 682.148 681.433 683.045 C 680.478 684.186 678.86 683.663 677.747 683.134 C 675.508 682.071 673.357 680.785 671.282 679.42 C 661.57 673.026 651.95 666.491 642.19 660.172 C 634.904 655.455 633.416 656.211 632.595 664.805 C 632.011 670.907 632.239 677.129 629.151 682.76 C 627.165 686.381 625.033 689.834 621.177 692.423 C 623.152 675.338 618.469 660.4 609.062 647.027 C 604.62 640.713 597.657 636.837 590.9 633.286 C 576.859 625.907 563.929 616.853 551.319 607.373 C 540.063 598.911 527.404 593.024 515.249 586.187 C 499.581 577.374 496.059 563.162 505.295 547.818 C 509.627 540.621 515.325 534.624 520.893 528.451 C 526.091 522.687 531.798 517.208 533.925 509.293 C 536.317 500.391 533.157 495.854 523.939 495.398 C 515.017 494.957 506.493 497.189 498.165 499.97 C 477.329 506.928 456.545 514.124 435.145 519.118 C 404.472 526.278 373.363 529.547 341.791 528.433 C 325.337 527.853 308.913 527.086 292.532 525.477 C 289.533 525.182 287.86 525.825 285.924 528.729 C 277.093 541.983 265.918 553.099 252.921 562.351 C 244.562 568.301 209.652 570.391 199.196 574.859 C 215.141 577.614 256.524 581.346 271.422 586.102 C 258.68 595.652 244.76 592.449 230.8 592.42 C 232.167 595.816 234.825 596.418 237.171 597.314 C 248.811 601.757 261.168 603.634 273.039 607.258 C 273.357 607.355 273.742 607.325 274.003 607.496 C 275.719 608.617 279.352 608.411 279.026 610.575 C 278.626 613.22 275.169 613.116 272.773 613.305 C 265.903 613.847 259.054 612.893 252.519 611.142 C 242.802 608.54 232.725 607.646 222.99 604.165 C 223.475 606.977 225.743 607.485 227.397 608.43 C 234.38 612.419 240.358 617.613 245.78 623.47 C 247.36 625.177 250.195 627.031 248.566 629.624 C 246.794 632.443 243.687 630.788 241.296 629.998 C 234.404 627.723 228.726 623.287 222.953 619.088 C 217.57 615.174 212.219 611.24 205.762 609.235 C 204.354 608.798 202.891 608.368 201.434 608.29 C 192.788 607.827 190.262 610.49 191.876 618.899 C 192.577 622.551 192.575 626.176 192.742 629.821 C 192.791 630.884 193.352 632.362 191.823 632.827 C 190.48 633.236 189.779 631.986 189.036 631.133 C 184.169 625.544 180.845 619.13 178.601 612.075 C 176.794 606.394 174.732 600.793 172.715 595.181 C 171.533 591.894 169.157 591.067 165.683 591.1 C 153.672 591.212 141.847 607.637 140.535 617.485 C 139.594 624.554 140.689 631.441 141.859 638.288 C 143.029 645.133 142.892 651.821 141.453 658.775 C 135.111 657.134 124.442 646.735 123.933 645.709 C 122.175 642.472 120.659 642.232 120.532 639.323 C 119.766 621.846 122.505 605.45 134.624 591.8 C 137.55 588.505 140.372 585.117 143.436 581.546 C 138.552 580.022 125.505 579.195 124.471 578.857 C 113.727 575.341 102.754 577.935 91.896 577.575 C 90.902 577.542 89.904 577.732 88.906 577.754 C 75.799 578.043 67.993 573.707 76.028 558.462 C 79.516 551.843 82.086 544.796 84.262 537.689 C 88.618 523.465 95.476 522.8 109.353 525.942 C 114.554 527.119 117.984 530.719 121.263 534.496 C 122.461 535.875 123.41 537.106 125.308 535.585 C 131.993 530.228 139.738 526.017 144.449 517.688 C 141.305 517.369 140.259 515.153 139.322 512.691 C 136.607 505.548 131.862 501.221 123.732 501.071 C 120.872 501.017 117.829 500.77 115.339 498.553 C 110.991 494.681 110.003 490.984 112.629 485.78 C 118.516 474.114 126.708 464.003 135.319 454.383 C 143.579 445.154 153.158 432.349 161.84 423.541 C 163.357 422.002 184.535 441.68 189.68 455.149 C 188.101 440.995 198.206 441.964 203.885 436.661 C 205.337 435.305 183.481 405.161 184.827 403.906 C 192.762 396.508 212.408 379.772 219.519 374.998 C 227.944 378.261 245.106 394.743 249.963 404.355 C 251.49 397.903 264.352 390.657 270.618 386.669 C 274.253 384.355 240.683 360.548 240.683 360.548 C 250.987 354.779 265.573 341.647 271.074 341.287 C 274.456 339.315 281.363 337.267 280.786 335.213 C 282.242 334.518 301.533 359.751 305.892 367.002 C 308.78 359.234 315.001 358.761 320.511 356.501 C 323.889 353.001 306.716 324.065 306.716 324.065 C 311.954 322.005 321.943 318.891 326.166 317.307 C 331.574 315.28 336.719 313.647 341.703 312.339 C 344.393 311.633 361.818 339.231 364.43 338.703 C 369.115 337.755 382.085 335.592 387.714 335.081 C 392.855 334.615 376.536 304.012 376.536 304.012 C 387.637 303.641 396.157 300.513 409.411 300.933 C 416.965 301.172 422.579 304.274 430.003 305.101 C 433.633 305.505 441.759 334.163 445.361 334.694 C 452.286 335.716 471.849 336.154 475.221 342.643 C 471.16 327.019 473.017 309.808 473.017 309.808 C 484.098 312.79 507.21 318.86 518.139 322.575 C 521.794 323.818 546.059 357.066 571.668 379.381 C 575.369 382.606 539.193 331.448 540.491 327.113 C 543.911 315.693 545.186 304.018 543.786 292.127 C 543.459 289.348 543.186 289.038 540.198 285.693 C 539.449 287.095 538.768 288.495 537.977 289.83 C 533.626 297.176 532.465 297.501 524.418 294.409 C 503.031 286.192 481.31 278.983 458.571 275.674 C 434.294 272.142 409.936 271.105 385.434 274.146 C 357.713 277.585 330.439 282.688 304.099 292.269 C 277.415 301.976 252.821 315.657 228.804 330.621 C 205.671 345.034 186.759 364.217 167.259 383.331 C 165.214 382.776 165.733 384.661 164.89 385.412 C 162.963 387.937 153.98 397.177 151.888 399.565 C 149.845 399.446 155.797 392.577 154.737 394.524 C 151.575 400.335 146.431 402.049 139.843 399.591 C 139.583 399.366 139.61 399.347 139.603 399.362 C 137.822 396.671 140.164 394.281 140.393 391.45 C 143.956 388.249 147.939 386.344 152.221 384.289 C 154.101 385.091 154.686 384.043 155.427 382.685 C 156.738 381.509 157.86 380.573 158.983 379.638 C 143.091 374.989 143.628 374.06 163.004 364.017 C 169.174 361.797 175.07 359.655 180.69 356.75 C 177.36 353.493 166.065 350.917 173.907 346.212 C 179.448 344.53 194.365 338.784 200.021 337.528 C 203.089 336.846 198.484 329.906 196.976 328.139 C 194.26 324.956 218.563 319.9 226.491 315.722 C 224.699 313.461 220.307 310.052 218.707 307.984 C 216.792 305.507 240.297 301.971 247.361 304.058 C 251.433 305.26 239.331 287.68 244.69 287.922 C 251.296 288.221 272.16 295.169 274.126 292.855 C 276.027 290.618 268.35 287.145 264.639 280.606 C 279.993 277.348 285.903 279.67 292.875 283.594 C 292.915 280.282 287.797 274.145 289.449 269.107 C 301.042 270.333 311.237 278.116 313.647 276.951 C 315.769 275.925 309.854 263.346 311.9 263.74 C 324.097 266.088 326.471 266.287 330.535 271.863 C 331.587 273.307 328.785 256.777 329.483 256.341 C 331.735 254.935 347.619 267.652 350.048 266.754 C 356.426 264.397 346.497 248.165 350.223 250.068 C 358.323 254.206 370.553 259.248 379.112 263.611 C 380.132 257.693 375.187 244.922 378.628 247.352 C 382.957 250.41 408.726 257.96 410.328 263.626 C 411.447 256.86 409.354 242.602 412.177 245.32 C 417.455 250.403 429.99 255.427 433.656 262.892 C 434.11 256.025 434.416 240.747 437.233 243.955 C 444.076 251.75 456.171 257.808 458.353 269.566 C 463.996 262.519 456.745 254.237 462.402 247.651 C 469.997 254.298 479.057 263.059 482.839 273.305 C 485.137 267.619 486.376 262.754 488.891 258.437 C 491.263 254.365 500.516 274.845 501 276.149 C 501.15 269.159 502.897 266.084 503.503 258.718 C 508.476 267.47 518.074 275.385 518.864 285.629 C 521.134 280.057 518.809 275.776 519.803 270.476 C 519.987 269.494 531.613 280.506 530.639 287.129 C 536.668 281.9 537.181 279 533.423 272.753 C 527.16 262.341 518.212 254.945 507.516 249.43 C 502.335 246.758 497.938 243.234 497.67 236.752 C 497.341 228.793 502.914 223.164 512.229 221.321 C 522.398 219.31 532.581 220.488 542.581 221.74 C 558.031 223.673 573.908 223.712 588.64 229.68 C 598.14 233.529 607.14 238.631 617.674 239.587 C 619.922 239.791 622.067 239.828 623.971 239.065 C 644.411 230.873 665.876 229.466 687.526 229.295 C 693.826 229.246 700.136 229.404 706.425 229.757 C 707.75 229.832 735.492 225.083 743.463 225.604 C 745.937 225.766 747.376 225.181 748.501 222.872 C 750.716 218.327 754.907 216.19 759.606 215.435 C 772.329 213.391 785.111 213.207 797.9 214.985 C 801.515 215.488 805.152 215.837 808.763 216.363 C 811.837 216.811 814.222 218.59 814.526 221.645 C 816.153 237.993 819.218 254.204 818.713 270.763 C 818.477 278.487 817.846 286.098 815.356 293.378 C 814.373 296.251 815.06 297.228 817.367 298.749 C 823.89 303.049 829.21 308.422 829.905 316.819 C 830.184 320.189 829.648 323.45 827.052 326.279 C 829.21 314.742 824.288 306.731 814.825 300.733 C 812.458 299.233 810.305 297.394 807.725 295.509 C 812.752 286.067 813.563 275.221 813.676 265.121 C 813.818 252.447 810.83 240.654 809.391 228.133 C 809.032 225.012 806.418 223.291 803.45 222.591 C 801.329 222.09 799.196 221.815 797.022 221.81 C 787.867 221.788 778.711 221.793 769.555 221.808 C 762.971 221.818 757.045 223.693 752.246 228.326 C 749.528 230.951 746.372 231.696 742.718 231.851 C 735.368 232.163 732.79 231.324 726.719 232.044 C 737.151 233.976 740.878 232.669 751.213 253.063 C 746.994 236.973 751.452 229.886 767.839 226.723 C 777.986 224.765 788.266 223.879 798.56 223.234 C 803.56 222.921 806.594 225.014 807.647 229.937 C 811.377 247.365 814.269 264.887 810.989 282.768 C 810.268 286.698 809.403 290.608 806.068 293.739 C 802.295 289.567 797.493 287.188 793.068 284.302 C 781.406 276.698 768.584 270.917 757.825 261.882 C 756.984 261.176 755.518 260.244 754.788 260.535 C 750.233 262.351 748.243 257.599 746.46 256.251 C 744.967 254.209 744.358 253.72 742.289 255.959 C 735.826 262.953 733.619 271.747 730.987 280.867 C 729.723 283.167 728.9 294.383 724.977 296.427 C 722.899 290.892 729.515 271.841 730.875 265.318 C 732.313 258.421 735.298 252.128 734.334 244.899 C 733.851 241.277 732.107 239.214 728.687 239.168 C 714.585 238.977 700.687 236.143 686.399 237.38 C 673.328 238.512 660.203 239.054 647.167 240.795 C 637.595 242.073 628.539 245.883 618.77 246.243 C 615.745 246.354 612.831 246.45 609.884 245.702 C 606.171 244.76 602.357 244.025 598.886 242.438 C 583.314 234.433 530.983 229.048 518.901 229.746 C 516.524 229.692 514.813 230.514 512.847 231.637 C 512.369 231.96 512.18 232.092 511.715 232.432 C 507.613 237.426 507.857 239.512 513.312 242.936 C 533.101 255.359 544.598 274.086 553.355 295.353 C 559.493 309.242 561.175 323.931 564.695 338.151 C 568.43 353.244 578.352 362.218 593.416 366.831 C 618.11 374.394 642.744 373.529 667.899 369.955 C 667.899 369.955 722.174 357.82 749.747 353.979 C 768.513 351.364 787.231 348.394 805.951 345.458 C 812.182 344.481 818.377 343.311 824.836 343.202 C 824.791 337.648 821.982 332.993 820.56 327.712 C 824.397 330.581 828.414 341.241 827.339 345.308 C 826.556 348.272 823.878 348.456 821.733 348.252 C 816.038 347.71 814.414 350.548 814.672 355.568 C 814.948 360.955 813.867 366.181 812.1 371.212 C 811.269 373.58 814.641 377.676 809.298 378.27 C 806.396 378.593 803.512 379.068 800.281 379.522 C 797.218 380.473 798.573 379.739 796.629 380.471 C 796.629 386.128 796.594 390.859 796.641 395.588 C 796.671 398.72 796.206 400.553 792.098 399.705 C 788.108 398.881 783.792 399.608 779.74 396.259 C 779.74 402.312 779.774 407.675 779.729 413.036 C 779.699 416.655 778.183 418.286 774.405 416.897 C 771.329 415.767 768.199 414.783 764.799 413.634 C 764.799 417.925 764.86 422.154 764.784 426.38 C 764.672 432.6 764.12 432.864 758.058 431.541 C 756.002 431.092 754.594 429.967 752.586 428.234 C 752.586 431.529 752.543 434.262 752.601 436.994 C 752.641 438.864 751.85 440.221 750.251 441.056 C 748.383 442.031 747.66 440.292 746.567 439.39 C 745.199 438.261 744.148 436.595 742.037 436.521 C 740.724 439.472 742.691 442.34 742.085 445.29 C 740.969 450.724 739.973 451.21 735.74 447.855 C 734.59 446.944 733.52 445.933 731.727 444.37 C 731.955 447.971 731.06 450.712 730.398 453.502 C 729.59 456.91 728.041 457.624 725.68 454.565 C 724.471 452.999 723.198 451.483 721.759 449.665 C 721.177 449.031 720.785 448.689 720.066 449.07 C 720.208 450.578 720.602 451.851 720.726 453.15 C 720.946 455.455 722.094 460.964 719.197 459.15 C 716.607 457.528 717.502 457.497 713.712 455.977 C 712.544 455.509 709.55 455.047 707.722 456.469 C 706.116 457.718 707.583 459.589 708.057 461.013 C 712.574 474.614 721.036 485.818 729.639 497.03 C 735.467 504.625 740.969 512.676 740.367 523.059 C 740.267 524.775 741.461 525.337 742.677 525.893 C 757.51 532.666 769.123 543.624 779.948 555.361 C 792.793 569.289 808.158 570.73 825.083 565.725 C 830.961 563.986 836.616 561.504 842.47 559.671 C 844.128 559.152 846.538 557.72 847.88 560.087 C 849.116 562.268 847.497 564.153 846.111 565.729 C 844.562 567.491 842.522 568.62 840.301 569.408 C 833.453 571.839 826.612 574.286 819.044 576.986 C 825.297 580.801 831.89 581.028 838.273 581.24 C 846.58 581.516 854.878 581.529 863.023 583.403 C 866.544 584.213 870.156 584.979 873.51 589.686 C 854.93 590.68 837.432 586.854 819.925 589.267 C 822.895 593.951 845.954 617.941 842.919 623.013 Z" style="fill: rgb(8, 8, 8);"/>
  <path opacity="1.000000" stroke="none" d="M 722.962 313.77 C 728.187 313.187 743.719 260.759 745.478 263.09 C 752.36 268.393 778.42 289.196 792.109 294.118 C 823.892 305.524 819.73 338.187 811.655 339.451 C 788.858 343.02 765.87 345.454 743.305 350.4 C 723.232 354.8 703.41 360.491 683.105 363.647 C 665.871 366.326 648.414 371.7 631.028 369.167 C 606.683 365.62 602.7 362.623 590.398 358.683 C 574.557 353.61 559.952 301.869 555.085 290.474 C 551.705 287.347 539.501 261.274 526.62 252.775 C 524.947 251.671 508.979 242.287 507.299 241.209 C 501.666 237.598 509.209 236.007 512.995 229.984 C 524.84 233.126 563.616 234.641 574.94 238.65 C 589.742 241.489 594.996 243.811 601.896 245.764 C 606.069 246.945 607.67 246.988 608.487 251.749 C 609.411 257.131 611.302 261.63 614.069 267.264 C 618.192 275.657 623.912 284.918 627.962 293.304 C 625.069 282.655 611.969 259.858 611.176 256.61 C 610.225 252.717 611.182 251.418 615.24 251.07 C 618.392 250.799 621.571 251.041 624.729 250.723 C 627.768 250.417 628.537 252.037 628.087 254.711 C 625.626 269.307 632.207 282.013 636.883 295.011 C 639.519 302.338 646.562 305.15 653.325 307.825 C 666.128 312.889 679.412 313.93 693.023 313.084 C 701.14 312.58 714.604 316.169 722.962 313.77 Z" style="fill: rgb(8, 8, 8);"/>
  <path opacity="1.000000" stroke="none" d="M 409.238 583.863 C 411.181 582.435 413.634 581.845 415.472 579.606 C 428.01 588.044 434.227 600.796 437.539 614.909 C 443.775 641.477 437.48 666.192 423.252 688.622 C 402.12 721.934 371.141 742.731 334.201 755.342 C 313.622 762.367 292.686 767.977 271.043 770.1 C 252.317 771.937 233.5 771.992 214.676 770.545 C 195.121 769.042 175.727 766.824 156.811 761.379 C 123.017 751.651 92.993 735.781 70.692 707.738 C 55.768 688.971 47.71 667.364 44.428 643.609 C 38.167 598.302 49.772 556.391 67.492 515.489 C 73.039 502.685 79.571 490.393 86.445 478.265 C 88.338 474.925 90.366 471.706 92.82 468.758 C 93.243 468.249 86.375 465.216 89.999 463.995 C 100.168 460.57 97.427 461.04 100.648 459.204 C 101.734 458.586 103.76 456.292 102.528 456.531 C 86.073 459.729 97.159 454.082 107.028 449.843 C 106.707 449.332 98.373 448.461 101.457 444.946 C 104.847 441.082 112.747 436.497 116.652 434.882 C 105.912 434.747 97.409 437.595 126.257 420.82 C 123.873 419.683 121.829 418.228 121.451 415.698 C 120.961 412.426 124.228 412.469 125.973 411.268 C 130.853 407.911 136.194 405.145 139.627 399.721 C 143.11 399.436 146.626 400.374 150.01 398.069 C 151.967 396.737 153.502 395.886 153.805 393.081 C 154.154 389.856 156.245 389.534 158.622 392.365 C 153.562 399.141 148.324 405.555 143.131 412.004 C 115.833 445.903 92.575 482.453 73.715 521.608 C 56.347 557.667 48.132 595.883 50.719 636.165 C 53.775 683.753 78.678 716.765 118.964 739.787 C 137.793 750.547 158.428 756.391 179.443 759.825 C 205.908 764.149 232.692 766.836 259.654 765.124 C 272.094 764.334 284.333 762.008 296.309 758.833 C 314.533 754.002 332.809 749.235 350.087 741.348 C 375.632 729.687 397.818 713.839 414.031 690.562 C 426.021 673.349 433.66 654.259 434.333 633.209 C 434.695 621.871 430.263 611.173 424.2 601.474 C 420.148 594.992 415.738 588.746 409.238 583.863 Z" style="fill: rgb(8, 8, 8);"/>
  <path opacity="1.000000" stroke="none" d="M 117.834 643.897 C 119.594 646.268 129.684 655.515 132.885 657.324 C 139.882 661.277 140.27 662.725 139.232 670.442 C 135.787 696.053 106.885 708.56 83.73 693.442 C 79.982 690.996 77.473 687.501 75.407 683.694 C 64.125 662.907 61.597 640.624 64.267 617.476 C 64.419 616.155 64.471 614.82 64.659 613.505 C 65.953 604.464 68.955 583.212 91.524 590.18 C 104.039 589.779 120.499 601.37 119.45 612.594 C 119.034 617.037 118.516 621.523 117.432 625.842 C 115.459 633.703 114.797 636.159 117.834 643.897 Z" style="fill: rgb(8, 8, 8);"/>
  <path opacity="1.000000" stroke="none" d="M 304.917 725.043 C 302.39 731.534 300.621 737.902 296.749 743.426 C 292.65 749.273 287.452 753.158 280.261 754.192 C 267.437 756.038 254.632 758.092 241.602 757.358 C 238.623 757.19 235.62 757.038 232.685 756.54 C 221.633 754.666 222.652 754.701 225.693 743.528 C 227.304 737.605 231.161 732.596 234.263 727.322 C 237.625 721.606 239.034 715.388 239.555 708.886 C 239.675 707.395 239.7 705.889 239.919 704.412 C 241.428 694.211 242.604 693.19 252.851 693.034 C 263.954 692.865 275.056 692.665 286.113 691.471 C 287.43 691.329 288.771 691.391 290.102 691.392 C 298.98 691.401 300.896 692.954 303.216 702.111 C 304.816 708.989 306.061 723.665 304.917 725.043 Z" style="fill: rgb(8, 8, 8);"/>
  <path opacity="1.000000" stroke="none" d="M 203.234 741.567 C 193.737 750.027 182.963 751.576 170.649 749.615 C 152.151 746.668 135.281 740.021 118.624 729.992 C 126.525 726.964 133.762 724.054 141.103 721.431 C 145.183 719.973 147.344 717.845 146.843 713.098 C 146.348 708.397 148.039 703.901 149.897 699.626 C 152.527 693.572 157.242 690.623 163.893 690.189 C 174.625 689.49 184.731 691.978 194.494 695.93 C 207.233 701.085 212.238 712.165 215.384 724.477 C 215.465 724.795 215.542 725.135 215.517 725.457 C 214.694 736.331 203.571 740.786 203.234 741.567 Z" style="fill: rgb(8, 8, 8);"/>
  <path opacity="1.000000" stroke="none" d="M 139.454 683.168 C 141.596 680.194 143.477 677.462 146.889 674.809 C 144.523 682.401 142.751 689.296 138.488 695.226 C 137.42 696.712 136.354 698.201 135.344 699.728 C 132.09 704.649 132.318 706.599 136.688 710.214 C 143.65 715.971 145.367 714.961 135.275 720.315 C 129.012 723.638 122.364 726.377 115.006 726.408 C 113.501 726.414 112.108 726.304 110.719 725.484 C 105.45 722.372 86.842 703.483 83.071 696.954 C 90.567 701.197 97.812 704.131 105.823 704.739 C 113.041 705.288 119.681 704.28 125.147 698.914 C 130.135 694.016 135.112 689.126 139.454 683.168 Z" style="fill: rgb(8, 8, 8);"/>
  <path opacity="1.000000" stroke="none" d="M 151.749 649.852 C 152.24 649.172 168.003 663.54 191.408 674.356 C 212.988 684.328 242.342 690.756 243.096 691.572 C 233.703 701.71 171.922 677.244 171.457 676.196 C 160.818 670.797 150.933 650.982 151.749 649.852 Z" style="fill: rgb(8, 8, 8);"/>
  <path opacity="1.000000" stroke="none" d="M 140.235 391.216 C 141.215 393.814 140.207 396.241 139.632 399.051 C 134.358 394.493 134.358 394.493 140.235 391.216 Z" style="fill: rgb(8, 8, 8);"/>
  <path opacity="1.000000" stroke="none" d="M 155.313 382.487 C 155.676 383.751 155.561 385.099 154.644 386.045 C 152.89 387.854 152.769 386.26 152.589 384.584 C 153.388 383.665 154.2 383.097 155.313 382.487 Z" style="fill: rgb(8, 8, 8);"/>
  <path opacity="1.000000" stroke="none" d="M 165.014 385.63 C 164.615 381.972 164.615 381.972 166.81 383.117 C 166.378 384.181 165.828 384.87 165.014 385.63 Z" style="fill: rgb(8, 8, 8);"/>
  <path opacity="1.000000" stroke="none" d="M 807.068 297.785 C 807.138 297.74 806.998 297.83 807.068 297.785 Z" style="fill: rgb(8, 8, 8);"/>
  <path opacity="1.000000" stroke="none" d="M 777.61 631.354 C 777.456 631.517 777.326 631.707 777.195 631.897 C 777.239 631.666 777.282 631.435 777.498 631.324 C 777.672 631.444 777.634 631.382 777.61 631.354 Z" style="fill: rgb(8, 8, 8);"/>
  <path opacity="1.000000" stroke="none" d="M 394.628 574.983 C 394.447 574.778 394.259 574.54 394.07 574.302 C 394.2 574.388 394.329 574.473 394.562 574.779 C 394.666 575 394.621 574.95 394.628 574.983 Z" style="fill: rgb(8, 8, 8);"/>
  <path opacity="1.000000" stroke="none" d="M 775.32 590.019 C 775.521 589.585 775.903 589.349 776.284 589.112 C 776.349 589.505 776.413 589.898 776.173 590.448 C 775.746 590.475 775.623 590.346 775.32 590.019 Z" style="fill: rgb(8, 8, 8);"/>
  <path opacity="1.000000" stroke="none" d="M 241.25 478.896 C 241.186 478.922 241.314 478.87 241.25 478.896 Z" style="fill: rgb(8, 8, 8);"/>
  <path opacity="1.000000" stroke="none" d="M 204.394 739.227 C 204.713 738.322 204.841 737.89 204.969 737.458 C 206.221 738.242 205.693 739.267 205.075 740.398 C 204.601 740.254 204.402 739.978 204.394 739.227 Z" style="fill: rgb(8, 8, 8);"/>
  <path opacity="1.000000" stroke="none" d="M 711.408 310.774 C 717.856 308.314 719.314 302.222 722.025 297.243 C 723.423 294.676 723.917 291.617 725.061 288.512 C 726.579 287.715 727.832 287.378 728.81 289.185 C 727.812 295.564 726.014 301.19 723.554 306.61 C 722.643 308.616 721.528 310.416 718.774 310.817 C 716.532 311.221 714.502 311.355 712.043 311.413 C 711.472 311.21 711.331 311.083 711.408 310.774 Z" style="fill: rgb(8, 8, 8);"/>
  <path opacity="1.000000" stroke="none" d="M 565.753 457.478 C 565.667 458.201 565.344 458.718 565.022 459.234 C 564.916 458.634 564.809 458.035 564.866 457.155 C 565.191 457.007 565.354 457.139 565.753 457.478 Z" style="fill: rgb(8, 8, 8);"/>
  <path opacity="1.000000" stroke="none" d="M 701.371 308.756 C 663.611 313.659 645.906 301.633 641.454 294.983 C 633.91 283.715 631.885 271.058 634.801 257.83 C 635.642 254.02 638.637 251.353 642.089 249.358 C 650.682 244.391 660.303 243.679 669.82 242.325 C 682.549 240.516 715.762 241.115 719.518 241.723 C 726.689 242.883 731.831 250.289 730.303 257.695 C 727.696 270.34 724.319 282.741 718.748 294.525 C 715.105 302.229 709.566 307.151 701.371 308.756 Z" style="fill: rgb(8, 8, 8);"/>
  <path opacity="1.000000" stroke="none" d="M 710.246 310.908 C 710.217 310.862 710.422 311.16 710.422 311.16 C 710.422 311.16 710.409 311.053 710.288 310.996 C 710.168 310.939 710.275 310.953 710.246 310.908 Z" style="fill: rgb(8, 8, 8);"/>
  <path opacity="1.000000" stroke="none" d="M 383.91 576.001 C 408.102 581.9 424.385 596.009 429.595 620.261 C 432.769 635.035 429.016 649.682 422.767 663.377 C 420.162 669.087 417.041 674.646 413.504 679.829 C 407.845 688.123 399.851 690.345 392.599 684.711 C 391.728 684.035 390.514 683.799 389.249 683.27 C 390.302 690.198 391.129 696.891 392.389 703.501 C 393.307 708.316 391.086 711.316 387.758 714.239 C 377.374 723.359 365.318 729.633 352.811 735.168 C 345.426 738.437 338.309 742.363 330.39 744.78 C 329.104 734.708 331.628 725.261 332.495 715.715 C 333.192 708.042 333.505 700.452 332.414 692.812 C 331.848 688.854 332.044 686.039 337.355 684.725 C 348.424 681.987 363.06 680.139 372.259 673.047 C 372.342 672.712 447.175 620.296 387.489 594.452 C 374.465 589.443 355.608 574.27 331.875 600.047 C 320.481 608.469 316.632 648.182 335.703 650.983 C 344.238 652.236 370.267 658.268 376.543 646.684 C 380.518 639.347 394.058 619.639 384.043 612.602 C 378.146 608.458 356.092 604.248 347.502 612.027 C 343.372 615.767 333.144 632.323 339.274 636.917 C 342.675 639.466 362.367 645.795 369.877 640.828 C 374.391 637.843 382.535 622.663 377.443 618.047 C 372.345 613.425 354.489 617.68 354.451 617.862 C 351.695 616.161 351.795 615.677 354.916 612.445 C 354.86 612.371 376.793 607.352 381.876 615.492 C 387.02 623.728 378.47 642.684 373.164 646.081 C 361.122 653.791 336.482 648.138 332.468 643.888 C 322.791 633.641 330.517 607.274 338.251 602.184 C 351.77 593.286 387.176 599.166 392.626 605.056 C 405.091 618.527 392.297 646.205 386.011 654.822 C 375.065 669.826 342.791 665.966 332.661 664.697 C 309.228 661.761 301.914 621.525 305.302 608.105 C 314.002 580.457 355.119 569.121 367.648 567.456 C 374.2 566.586 380.797 565.584 387.804 567.313 C 389.73 567.015 397.591 569.323 400.169 570.603 C 401.552 570.992 415.099 579.358 417.102 580.962 C 417.053 585.034 414.242 585.342 411.047 585.614 C 409.209 584.684 407.776 583.82 406.167 582.687 C 404.323 581.013 389.016 574.393 384.603 574.473 C 380.751 574.248 378.044 574.435 375.369 574.852 C 374.262 574.983 380.401 575.029 383.91 576.001 Z" style="fill: rgb(8, 8, 8);" transform="matrix(0.998533, 0.054145, -0.054145, 0.998533, 36.03529, -18.943764)"/>
</svg>